<svg version="1.0" xmlns="http://www.w3.org/2000/svg" width="512.000000pt" height="512.000000pt" viewBox="0 0 512.000000 512.000000" preserveAspectRatio="xMidYMid meet">

<g transform="translate(0.000000,512.000000) scale(0.100000,-0.100000)" fill="#1a75be" stroke="none">
<path d="M2174 4897 c0 -201 -3 -234 -27 -347 -110 -522 -364 -1012 -841 -1627 -60 -78 -111 -141 -112 -140 -1 1 -7 67 -14 147 -19 245 -66 431 -152 610 -38 76 -42 82 -45 55 -29 -244 -90 -415 -305 -860 -161 -332 -185 -386 -239 -545 -87 -254 -119 -564 -85 -798 67 -450 356 -827 921 -1200 121 -80 296 -184 301 -179 2 2 -19 58 -46 124 -98 238 -143 490 -122 680 27 236 85 373 301 713 149 235 262 485 321 712 13 48 26 85 30 83 13 -8 78 -148 100 -215 47 -145 61 -354 34 -495 l-6 -30 33 39 c107 125 231 358 294 550 81 249 124 597 95 771 -4 28 -6 52 -5 54 7 6 129 -93 221 -179 305 -285 534 -657 662 -1075 73 -236 102 -422 109 -690 5 -181 2 -231 -16 -364 -12 -84 -35 -205 -52 -268 -27 -108 -98 -302 -134 -373 -9 -18 -15 -34 -13 -36 2 -2 53 26 113 62 528 317 916 715 1112 1139 77 166 122 311 155 495 20 116 17 478 -6 610 -96 559 -368 1094 -813 1602 -88 100 -233 241 -241 234 -2 -2 4 -21 13 -42 46 -111 59 -194 59 -374 0 -165 -2 -180 -28 -255 -32 -93 -64 -152 -114 -207 l-35 -39 -47 153 c-153 501 -372 895 -683 1232 -184 200 -448 392 -657 480 l-35 14 -1 -221z" fill="#1a75be"/>
</g>
</svg>