<svg version="1.0" xmlns="http://www.w3.org/2000/svg" width="128.000000pt" height="128.000000pt" viewBox="0 0 128.000000 128.000000" preserveAspectRatio="xMidYMid meet">

<g transform="translate(0.000000,128.000000) scale(0.100000,-0.100000)" fill="#afafaf" stroke="none">
<path d="M608 1263 c-21 -25 -208 -361 -208 -374 0 -6 27 -57 60 -113 l60 -103 0 -250 0 -250 40 -28 c36 -25 39 -31 42 -77 6 -95 70 -95 76 0 3 46 6 52 42 77 l40 28 0 250 0 250 60 103 c33 56 60 107 60 113 0 13 -187 349 -208 374 -8 9 -23 17 -32 17 -9 0 -24 -8 -32 -17z m89 -278 c52 -22 73 -44 73 -76 0 -39 -38 -49 -79 -20 -37 26 -55 26 -98 0 -46 -29 -83 -20 -83 21 0 20 8 35 29 49 60 43 101 50 158 26z" fill="#afafaf"/>
<path d="M259 648 l-84 -151 -3 59 c-4 83 -38 117 -75 76 -14 -16 -17 -43 -17 -171 l0 -153 40 -68 c64 -107 57 -104 194 -84 l116 18 0 240 0 241 -43 72 -43 73 -85 -152z" fill="#afafaf"/>
<path d="M892 725 l-42 -72 0 -240 0 -239 116 -18 c137 -20 130 -23 194 84 l40 68 0 155 c0 136 -2 156 -18 170 -40 36 -70 5 -74 -77 l-3 -59 -74 134 c-41 74 -80 141 -86 150 -9 14 -17 6 -53 -56z" fill="#afafaf"/>
</g>
</svg>